# xmcd
#
# Track frame offsets:
#	150
#	10266
#	20572
#	31638
#	42596
#	55413
#	67915
#	78101
#	91022
#	102158
#
# Disc length: 1484 seconds
#
# Revision: 1
# Processed by: cddbd v1.5.2PL0 Copyright (c) Steve Scherf et al.
# Submitted via: EasyCDDAExtractor 16.0.1.1
#
DISCID=6b05ca0a
DTITLE=Dick Curless and Kaye Adams - A Devil Like Me Needs An Angel Like You
DYEAR=1966
DGENRE=Country
TTITLE0=A Devil Like Me Needs An Angel Like You
TTITLE1=Terrible Tangled Web
TTITLE2=Old Standby
TTITLE3=For Ever And Ever
TTITLE4=Heart Talk
TTITLE5=No Fool Like An Old Fool
TTITLE6=I Can't Stop (My Lovin' You)
TTITLE7=Congratulations You're Absolutely Right
TTITLE8=Too Late
TTITLE9=You You You
EXTD=
EXTT0=
EXTT1=
EXTT2=
EXTT3=
EXTT4=
EXTT5=
EXTT6=
EXTT7=
EXTT8=
EXTT9=
PLAYORDER=
